<svg width="1024" height="1024" viewBox="0 0 1024 1024" fill="none" xmlns="http://www.w3.org/2000/svg">
<path d="M512 1024C794.77 1024 1024 794.77 1024 512C1024 229.23 794.77 0 512 0C229.23 0 0 229.23 0 512C0 794.77 229.23 1024 512 1024Z" fill="#D34F38"/>
<rect width="1024" height="1024" rx="150" fill="#D34F38"/>
<path fill-rule="evenodd" clip-rule="evenodd" d="M672.604 673.187C617.861 673.187 573.457 629.279 573.457 575.106C573.457 520.933 617.847 477.01 672.604 477.01C727.361 477.01 771.779 520.919 771.779 575.106C771.779 629.293 727.389 673.187 672.604 673.187ZM702.302 386.259V298.93C713.915 293.612 723.768 285.089 730.701 274.364C737.634 263.638 741.358 251.156 741.437 238.386V236.367C741.437 199.46 710.908 169.281 673.635 169.281H671.587C634.357 169.281 603.785 199.474 603.785 236.367V238.386C603.867 251.155 607.593 263.636 614.526 274.361C621.458 285.086 631.309 293.609 642.92 298.93V386.259C609.485 391.302 577.956 405.019 551.477 426.044L309.338 239.689C311.033 233.558 311.942 227.237 312.044 220.877C312.044 179.059 277.836 145.115 235.58 145C193.323 144.886 159.043 178.773 159 220.605C158.957 262.437 193.152 296.31 235.408 296.381C248.643 296.324 261.636 292.826 273.11 286.231L511.354 469.623C489.922 501.542 478.724 539.232 479.254 577.673C479.783 616.114 492.015 653.481 514.319 684.798L441.834 756.523C433.259 753.835 424.202 753.038 415.289 754.187C406.375 755.336 397.817 758.403 390.204 763.177C382.59 767.951 376.102 774.319 371.187 781.841C366.271 789.363 363.046 797.862 361.732 806.75C360.418 815.639 361.047 824.707 363.576 833.329C366.104 841.951 370.473 849.923 376.38 856.695C382.287 863.467 389.592 868.878 397.792 872.555C405.991 876.233 414.891 878.089 423.878 877.997C458.588 877.997 486.74 850.137 486.74 815.792C486.678 809.756 485.713 803.762 483.876 798.011L555.472 727.117C589.175 752.658 630.313 766.47 672.604 766.444C779.44 766.444 866 680.789 866 575.106C866 479.444 794.948 400.447 702.288 386.259" fill="white"/>
</svg>
